{
	"asset":{
		"generator":"Khronos glTF Blender I/O v5.1.20",
		"version":"2.0"
	},
	"scene":0,
	"scenes":[
		{
			"name":"Scene",
			"nodes":[
				0,
				1,
				2
			]
		}
	],
	"nodes":[
		{
			"name":"Empty",
			"rotation":[
				0.5,
				0.5,
				-0.5,
				0.5
			],
			"translation":[
				-1.4454742670059204,
				0.6948122382164001,
				-0.8867692947387695
			]
		},
		{
			"name":"Empty.001",
			"rotation":[
				0,
				-0.7071068286895752,
				0.7071068286895752,
				3.090862321641907e-08
			],
			"translation":[
				0.8766344785690308,
				0.6948122382164001,
				1.6038225889205933
			]
		},
		{
			"mesh":0,
			"name":"Cube",
			"translation":[
				0,
				1.701752781867981,
				0
			]
		}
	],
	"materials":[
		{
			"doubleSided":true,
			"name":"Body_Mat",
			"pbrMetallicRoughness":{
				"baseColorTexture":{
					"index":0
				},
				"metallicFactor":0,
				"roughnessFactor":0.5
			}
		},
		{
			"doubleSided":true,
			"name":"Screen_Mat",
			"pbrMetallicRoughness":{
				"baseColorTexture":{
					"index":1
				},
				"metallicFactor":0,
				"roughnessFactor":0.5
			}
		}
	],
	"meshes":[
		{
			"name":"Cube.001",
			"primitives":[
				{
					"attributes":{
						"POSITION":0,
						"NORMAL":1,
						"TEXCOORD_0":2
					},
					"indices":3,
					"material":0
				},
				{
					"attributes":{
						"POSITION":4,
						"NORMAL":5,
						"TEXCOORD_0":6
					},
					"indices":7,
					"material":1
				}
			]
		}
	],
	"textures":[
		{
			"sampler":0,
			"source":0
		},
		{
			"sampler":0,
			"source":1
		}
	],
	"images":[
		{
			"mimeType":"image/png",
			"name":"Body_Mat Base Color",
			"uri":"Body_Mat%20Base%20Color.png"
		},
		{
			"mimeType":"image/png",
			"name":"Screen_Mat Base Color",
			"uri":"Screen_Mat%20Base%20Color.png"
		}
	],
	"accessors":[
		{
			"bufferView":0,
			"componentType":5126,
			"count":448,
			"max":[
				0.23331187665462494,
				1.1818110942840576,
				0.9882704019546509
			],
			"min":[
				-1.0024436712265015,
				-1.008797287940979,
				-0.6095929145812988
			],
			"type":"VEC3"
		},
		{
			"bufferView":1,
			"componentType":5126,
			"count":448,
			"type":"VEC3"
		},
		{
			"bufferView":2,
			"componentType":5126,
			"count":448,
			"type":"VEC2"
		},
		{
			"bufferView":3,
			"componentType":5123,
			"count":846,
			"type":"SCALAR"
		},
		{
			"bufferView":4,
			"componentType":5126,
			"count":52,
			"max":[
				0.04807313159108162,
				0.5152104496955872,
				0.9222285151481628
			],
			"min":[
				-0.15778866410255432,
				-0.02553476393222809,
				-0.27980294823646545
			],
			"type":"VEC3"
		},
		{
			"bufferView":5,
			"componentType":5126,
			"count":52,
			"type":"VEC3"
		},
		{
			"bufferView":6,
			"componentType":5126,
			"count":52,
			"type":"VEC2"
		},
		{
			"bufferView":7,
			"componentType":5123,
			"count":78,
			"type":"SCALAR"
		}
	],
	"bufferViews":[
		{
			"buffer":0,
			"byteLength":5376,
			"byteOffset":0,
			"target":34962
		},
		{
			"buffer":0,
			"byteLength":5376,
			"byteOffset":5376,
			"target":34962
		},
		{
			"buffer":0,
			"byteLength":3584,
			"byteOffset":10752,
			"target":34962
		},
		{
			"buffer":0,
			"byteLength":1692,
			"byteOffset":14336,
			"target":34963
		},
		{
			"buffer":0,
			"byteLength":624,
			"byteOffset":16028,
			"target":34962
		},
		{
			"buffer":0,
			"byteLength":624,
			"byteOffset":16652,
			"target":34962
		},
		{
			"buffer":0,
			"byteLength":416,
			"byteOffset":17276,
			"target":34962
		},
		{
			"buffer":0,
			"byteLength":156,
			"byteOffset":17692,
			"target":34963
		}
	],
	"samplers":[
		{
			"magFilter":9729,
			"minFilter":9987
		}
	],
	"buffers":[
		{
			"byteLength":17848,
			"uri":"ONE_HAND.bin"
		}
	]
}
